<?xml version="1.0" standalone="no"?>
<!DOCTYPE svg PUBLIC "-//W3C//DTD SVG 20010904//EN"
 "http://www.w3.org/TR/2001/REC-SVG-20010904/DTD/svg10.dtd">
<svg version="1.0" xmlns="http://www.w3.org/2000/svg"
 width="1193.000000pt" height="1280.000000pt" viewBox="0 0 1193.000000 1280.000000"
 preserveAspectRatio="xMidYMid meet">
<metadata>
Created by potrace 1.15, written by Peter Selinger 2001-2017
</metadata>
<g transform="translate(0.000000,1280.000000) scale(0.100000,-0.100000)"
fill="#000000" stroke="none">
<path d="M5892 12781 c-66 -23 -110 -64 -177 -166 -33 -50 -102 -128 -184
-209 -186 -182 -259 -301 -295 -478 -53 -260 36 -453 314 -678 158 -128 193
-179 212 -310 14 -93 -1 -257 -27 -296 -36 -56 -126 -23 -395 147 -238 149
-359 197 -557 220 -279 33 -670 -69 -1107 -288 -151 -75 -342 -183 -440 -247
-89 -59 -374 -220 -501 -283 -246 -124 -617 -234 -737 -220 -164 20 -349 199
-374 363 -6 40 -5 42 36 65 54 30 80 78 80 144 -1 92 -61 177 -146 205 -95 32
-248 -12 -319 -91 -79 -88 -110 -198 -102 -364 17 -346 251 -698 572 -858 86
-43 210 -83 288 -92 71 -9 75 14 -38 -270 -446 -1132 -1270 -2947 -1816 -4006
-113 -218 -179 -357 -179 -376 0 -70 92 -162 223 -223 l65 -31 32 -102 c144
-456 533 -961 935 -1214 183 -116 448 -206 746 -255 182 -30 660 -33 807 -5
627 119 1280 562 1582 1073 56 95 108 213 165 377 20 59 42 107 49 107 95 1
246 154 246 252 0 57 -39 120 -93 149 -46 24 -50 31 -130 195 -46 93 -133 257
-194 364 -139 245 -283 533 -406 810 -293 660 -704 1728 -897 2330 -45 140
-106 332 -136 425 -35 109 -81 225 -129 324 -41 84 -75 157 -75 161 0 4 24 18
53 30 56 24 79 41 232 169 325 271 581 415 795 448 132 20 344 17 460 -7 266
-54 519 -215 726 -463 123 -146 184 -246 252 -409 58 -139 162 -410 162 -422
0 -2 -25 -12 -55 -21 -138 -40 -206 -185 -206 -440 0 -163 20 -251 77 -346 27
-45 70 -107 96 -139 89 -111 90 -175 9 -332 -116 -222 -126 -359 -46 -599 41
-122 44 -190 15 -319 -37 -164 -18 -285 77 -478 44 -89 45 -127 9 -242 -52
-163 -56 -219 -54 -670 2 -394 1 -421 -20 -535 -80 -426 -249 -861 -559 -1435
-177 -327 -203 -401 -203 -570 0 -104 20 -212 70 -385 17 -61 34 -146 37 -191
11 -154 -27 -212 -261 -402 -72 -58 -148 -121 -169 -139 -54 -48 -777 -852
-777 -864 0 -23 124 -138 180 -168 69 -37 780 -275 972 -326 279 -73 575 -125
893 -157 196 -19 759 -16 960 5 536 58 1011 172 1450 347 293 117 390 175 426
255 31 67 25 95 -27 135 -25 19 -120 121 -212 225 -328 374 -361 411 -438 486
-44 41 -137 122 -209 179 -160 128 -245 212 -275 274 -34 72 -25 173 38 401
l50 180 -2 145 c-2 140 -3 148 -38 240 -39 104 -72 173 -163 337 -70 128 -238
486 -331 709 -132 317 -224 636 -243 839 -6 64 -8 258 -5 465 6 383 1 441 -56
655 -29 110 -12 215 47 294 61 79 82 253 49 395 -25 105 -20 178 20 333 66
254 58 347 -52 574 -67 138 -67 138 -61 204 5 54 12 73 34 99 48 53 140 189
157 229 48 117 65 363 32 486 -33 128 -99 212 -192 246 -27 10 -50 19 -52 21
-8 5 194 509 229 569 69 121 171 255 269 356 373 380 852 492 1318 308 173
-68 291 -146 570 -372 78 -64 177 -135 220 -158 42 -23 78 -43 80 -44 1 -1
-19 -40 -44 -86 -94 -170 -131 -269 -268 -719 -181 -595 -405 -1196 -734
-1970 -293 -689 -427 -973 -615 -1300 -55 -96 -138 -251 -183 -344 -79 -162
-84 -169 -131 -196 -87 -50 -113 -132 -69 -219 49 -95 124 -163 198 -176 20
-4 40 -14 43 -23 4 -10 35 -101 69 -203 52 -152 73 -200 116 -265 169 -251
357 -452 588 -626 311 -235 660 -386 1032 -446 152 -25 609 -24 770 1 242 38
479 108 620 184 315 170 650 489 847 806 78 127 173 329 222 471 l40 120 43
16 c129 49 238 158 238 236 0 15 -26 73 -59 128 -239 411 -1168 2420 -1751
3791 -160 376 -287 702 -277 710 1 2 48 14 103 28 390 97 685 385 785 765 27
99 36 281 19 353 -39 165 -156 275 -306 287 -153 12 -267 -92 -251 -229 8 -66
34 -109 81 -134 37 -20 37 -20 31 -69 -3 -27 -15 -67 -27 -90 -28 -56 -184
-214 -233 -237 -150 -69 -580 46 -975 261 -72 39 -255 146 -408 238 -650 390
-977 512 -1385 512 -263 0 -442 -61 -732 -248 -109 -71 -222 -128 -270 -137
-43 -8 -90 24 -99 66 -26 129 -13 296 28 377 28 55 103 129 234 232 51 40 114
98 139 129 116 141 161 350 114 533 -40 154 -105 253 -306 458 -83 85 -170
183 -193 216 -53 80 -97 123 -147 145 -50 23 -86 23 -153 0z m-3315 -3507 c79
-142 255 -621 498 -1354 173 -523 268 -788 412 -1150 242 -608 595 -1410 785
-1783 43 -84 61 -130 54 -135 -6 -4 -173 -5 -371 -2 -366 5 -686 4 -1860 -2
-569 -3 -1590 14 -1632 27 -18 6 35 152 111 305 34 69 113 215 176 324 138
244 236 445 415 856 178 408 313 716 523 1185 323 724 491 1174 597 1597 50
200 38 178 98 179 29 0 72 4 97 8 25 5 49 8 54 7 5 -1 25 -29 43 -62z m6965
49 c56 -6 58 -7 67 -42 167 -646 264 -903 821 -2161 128 -289 284 -642 347
-785 148 -335 302 -646 449 -910 135 -243 192 -359 228 -469 14 -43 26 -79 26
-81 0 -1 -152 -5 -337 -8 -186 -4 -453 -12 -593 -19 -328 -16 -889 -15 -1240
1 -203 10 -459 11 -981 6 -389 -4 -712 -4 -718 -1 -7 5 -6 14 3 29 8 12 24 51
36 87 11 36 68 157 124 270 159 313 347 740 580 1308 235 575 283 708 706
1967 203 603 241 703 296 779 l36 48 46 -6 c26 -4 73 -9 104 -13z"/>
</g>
</svg>
